<svg width="34" height="32" viewBox="0 0 34 32" fill="none" xmlns="http://www.w3.org/2000/svg">
<path d="M22 26C23.2944 26 24.3437 25.1046 24.3437 24C24.3437 22.8954 23.2944 22 22 22L8.90831 22L11.9385 19.4142C12.8538 18.6332 12.8538 17.3668 11.9385 16.5858C11.0232 15.8047 9.53926 15.8047 8.62397 16.5858L1.59272 22.5858C1.15318 22.9609 0.90625 23.4696 0.90625 24C0.90625 24.5304 1.15318 25.0391 1.59272 25.4142L8.62397 31.4142C9.53926 32.1953 11.0232 32.1953 11.9385 31.4142C12.8538 30.6332 12.8538 29.3668 11.9385 28.5858L8.90831 26L22 26Z" fill="#707070"/>
<path d="M12.625 6C11.3306 6 10.2813 6.89543 10.2813 8C10.2813 9.10457 11.3306 10 12.625 10L25.7167 10L22.6865 12.5858C21.7712 13.3668 21.7712 14.6332 22.6865 15.4142C23.6018 16.1953 25.0857 16.1953 26.001 15.4142L33.0323 9.41422C33.4718 9.03914 33.7187 8.53043 33.7187 8C33.7187 7.46957 33.4718 6.96086 33.0323 6.58579L26.001 0.585789C25.0857 -0.195259 23.6018 -0.195259 22.6865 0.585789C21.7712 1.36684 21.7712 2.63317 22.6865 3.41422L25.7167 6L12.625 6Z" fill="#707070"/>
</svg>
